<?xml version="1.0" encoding="UTF-8" standalone="no"?>
<svg
   xmlns:dc="http://purl.org/dc/elements/1.1/"
   xmlns:cc="http://creativecommons.org/ns#"
   xmlns:rdf="http://www.w3.org/1999/02/22-rdf-syntax-ns#"
   xmlns:svg="http://www.w3.org/2000/svg"
   xmlns="http://www.w3.org/2000/svg"
   xmlns:sodipodi="http://sodipodi.sourceforge.net/DTD/sodipodi-0.dtd"
   xmlns:inkscape="http://www.inkscape.org/namespaces/inkscape"
   inkscape:version="1.0.1 (3bc2e813f5, 2020-09-07)"
   sodipodi:docname="view-sort-ascending.svg"
   id="svg4532"
   version="1.1"
   viewBox="0 0 67.733332 67.733335"
   height="256"
   width="256">
  <defs
     id="defs4526">
    <inkscape:path-effect
       effect="skeletal"
       id="path-effect874"
       is_visible="true"
       lpeversion="1"
       pattern="M 0,5 C 0,2.24 2.24,0 5,0 7.76,0 10,2.24 10,5 10,7.76 7.76,10 5,10 2.24,10 0,7.76 0,5 Z"
       copytype="single_stretched"
       prop_scale="0.3098"
       scale_y_rel="false"
       spacing="0"
       normal_offset="0"
       tang_offset="0"
       prop_units="false"
       vertical_pattern="false"
       hide_knot="false"
       fuse_tolerance="0" />
    <inkscape:path-effect
       effect="skeletal"
       id="path-effect870"
       is_visible="true"
       lpeversion="1"
       pattern="M 0,5 C 0,2.24 2.24,0 5,0 7.76,0 10,2.24 10,5 10,7.76 7.76,10 5,10 2.24,10 0,7.76 0,5 Z"
       copytype="single_stretched"
       prop_scale="0.3098"
       scale_y_rel="false"
       spacing="0"
       normal_offset="0"
       tang_offset="0"
       prop_units="false"
       vertical_pattern="false"
       hide_knot="false"
       fuse_tolerance="0" />
    <inkscape:path-effect
       effect="skeletal"
       id="path-effect866"
       is_visible="true"
       lpeversion="1"
       pattern="M 0,5 C 0,2.24 2.24,0 5,0 7.76,0 10,2.24 10,5 10,7.76 7.76,10 5,10 2.24,10 0,7.76 0,5 Z"
       copytype="single_stretched"
       prop_scale="0.3098"
       scale_y_rel="false"
       spacing="0"
       normal_offset="0"
       tang_offset="0"
       prop_units="false"
       vertical_pattern="false"
       hide_knot="false"
       fuse_tolerance="0" />
    <rect
       id="rect859"
       height="17.188449"
       width="22.188707"
       y="258.3869"
       x="29.033474" />
    <rect
       id="rect853"
       height="9.6015917"
       width="9.6015917"
       y="258.3869"
       x="29.033474" />
    <inkscape:perspective
       id="perspective848"
       inkscape:persp3d-origin="33.866666 : 22.577778 : 1"
       inkscape:vp_z="67.733332 : 33.866667 : 1"
       inkscape:vp_y="0 : 1000 : 0"
       inkscape:vp_x="0 : 33.866667 : 1"
       sodipodi:type="inkscape:persp3d" />
    <rect
       id="rect859-8"
       height="17.18845"
       width="22.188707"
       y="258.3869"
       x="29.033474" />
    <rect
       id="rect908"
       height="17.18845"
       width="22.188707"
       y="258.3869"
       x="29.033474" />
    <rect
       id="rect859-83"
       height="17.18845"
       width="22.188707"
       y="258.3869"
       x="29.033474" />
    <rect
       id="rect908-8"
       height="17.18845"
       width="22.188707"
       y="258.3869"
       x="29.033474" />
  </defs>
  <sodipodi:namedview
     inkscape:document-rotation="0"
     inkscape:window-maximized="1"
     inkscape:window-y="0"
     inkscape:window-x="0"
     inkscape:window-height="1024"
     inkscape:window-width="1920"
     units="px"
     showgrid="false"
     inkscape:current-layer="g856"
     inkscape:document-units="px"
     inkscape:cy="158.99999"
     inkscape:cx="66.670686"
     inkscape:zoom="4.3850268"
     inkscape:pageshadow="2"
     inkscape:pageopacity="0.0"
     borderopacity="1.0"
     bordercolor="#666666"
     pagecolor="#ffffff"
     id="base"
     showguides="true"
     inkscape:guide-bbox="true">
    <sodipodi:guide
       position="0,67.733334"
       orientation="0,256"
       id="guide853" />
    <sodipodi:guide
       position="67.733,67.733334"
       orientation="-1,0"
       id="guide855"
       inkscape:label=""
       inkscape:locked="false"
       inkscape:color="rgb(0,0,255)" />
    <sodipodi:guide
       position="67.733334,0"
       orientation="0,-256"
       id="guide857" />
    <sodipodi:guide
       position="0,0"
       orientation="-1,0"
       id="guide859"
       inkscape:label=""
       inkscape:locked="false"
       inkscape:color="rgb(0,0,255)" />
    <sodipodi:guide
       position="22.568958,45.164375"
       orientation="0,1"
       id="guide1430"
       inkscape:label=""
       inkscape:locked="false"
       inkscape:color="rgb(0,0,255)" />
    <sodipodi:guide
       position="42.288467,22.697503"
       orientation="0,1"
       id="guide1432"
       inkscape:label=""
       inkscape:locked="false"
       inkscape:color="rgb(0,0,255)" />
    <sodipodi:guide
       position="22.568958,45.164376"
       orientation="1,0"
       id="guide1434" />
    <sodipodi:guide
       position="45.137916,22.595418"
       orientation="1,0"
       id="guide1436" />
    <sodipodi:guide
       position="7.5141667,60.219167"
       orientation="0,1"
       id="guide1438"
       inkscape:label=""
       inkscape:locked="false"
       inkscape:color="rgb(0,0,255)" />
    <sodipodi:guide
       position="7.5141667,60.219167"
       orientation="1,0"
       id="guide1440" />
    <sodipodi:guide
       position="60.219167,7.5141667"
       orientation="0,1"
       id="guide1442"
       inkscape:label=""
       inkscape:locked="false"
       inkscape:color="rgb(0,0,255)" />
    <sodipodi:guide
       position="60.219167,7.5141667"
       orientation="1,0"
       id="guide1444" />
    <sodipodi:guide
       position="15.028333,52.705"
       orientation="0,1"
       id="guide1446"
       inkscape:label=""
       inkscape:locked="false"
       inkscape:color="rgb(0,0,255)" />
    <sodipodi:guide
       position="15.028333,52.705001"
       orientation="1,0"
       id="guide1448" />
    <sodipodi:guide
       position="52.705,15.028333"
       orientation="0,1"
       id="guide1450"
       inkscape:label=""
       inkscape:locked="false"
       inkscape:color="rgb(0,0,255)" />
    <sodipodi:guide
       position="52.704999,15.028333"
       orientation="1,0"
       id="guide1452" />
  </sodipodi:namedview>
  <metadata
     id="metadata4529">
    <rdf:RDF>
      <cc:Work
         rdf:about="">
        <dc:format>image/svg+xml</dc:format>
        <dc:type
           rdf:resource="http://purl.org/dc/dcmitype/StillImage" />
        <dc:title />
      </cc:Work>
    </rdf:RDF>
  </metadata>
  <g
     transform="translate(0,-229.26665)"
     id="layer1"
     inkscape:groupmode="layer"
     inkscape:label="Ebene 1">
    <g
       style="fill:none;fill-opacity:1;stroke:#22aa99;stroke-width:1.50083;stroke-linecap:round;stroke-linejoin:round;stroke-miterlimit:4;stroke-dasharray:none;stroke-opacity:1"
       transform="matrix(2.3505434,0,0,2.3505434,-45.675483,-355.51401)"
       id="g856">
      <g
         style="fill:none;fill-opacity:1;stroke:#22aa99;stroke-width:1.22965;stroke-linecap:round;stroke-linejoin:round;stroke-miterlimit:4;stroke-dasharray:none;stroke-opacity:1"
         transform="matrix(0.865323,0,0,1.7215693,4.6210202,-204.04907)"
         id="g6074" />
      <text
         style="fill:black;fill-opacity:1;stroke:none;font-family:sans-serif;font-style:normal;font-weight:normal;font-size:4.50250498px;line-height:1.25;letter-spacing:0px;word-spacing:0px;white-space:pre;shape-inside:url(#rect853);"
         id="text850"
         xml:space="preserve" />
      <g
         aria-label="A"
         transform="matrix(1.1771155,0,0,1.1771155,-11.419165,-54.153487)"
         id="text857"
         style="font-style:normal;font-weight:normal;font-size:4.5025px;line-height:1.25;font-family:sans-serif;letter-spacing:0px;word-spacing:0px;white-space:pre;shape-inside:url(#rect859);fill:#000000;fill-opacity:1;stroke:none">
        <path
           d="m 31.495816,263.01566 h 1.126591 l -0.234706,-1.75127 h -0.05055 l -1.007432,1.65378 q -0.0325,0.0578 0.0036,0.0794 0.03972,0.0181 0.162489,0.0181 z m -1.11937,1.50935 q -0.04333,0.0722 -0.05416,0.12999 -0.0072,0.0578 0.02528,0.0939 0.03611,0.0325 0.07222,0.0578 0.03972,0.0217 0.119159,0.0361 0.08305,0.0145 0.133602,0.0217 0.05055,0.004 0.140824,0.007 0.02528,0.0325 0.0072,0.12638 -0.01805,0.0939 -0.06138,0.12638 -0.545242,-0.0144 -0.978546,-0.0144 -0.148046,0 -0.700509,0.0144 -0.02528,-0.0325 -0.0072,-0.12277 0.02167,-0.0939 0.06138,-0.12999 0.148046,-0.0108 0.234707,-0.0253 0.08666,-0.0181 0.198598,-0.065 0.111937,-0.0505 0.20943,-0.15527 0.101105,-0.10471 0.209431,-0.27081 l 2.404838,-3.78419 q 0.274427,0 0.884663,-0.32859 l 0.624681,4.23194 q 0.04333,0.31053 0.317756,0.3683 0.05416,0.0108 0.263594,0.0289 0.01083,0.0144 0.01083,0.0542 0.0036,0.0361 -0.0036,0.0758 -0.0072,0.0361 -0.02528,0.0722 -0.01444,0.0361 -0.03611,0.0505 -0.545242,-0.0144 -0.985768,-0.0144 -0.718563,0 -1.267415,0.0144 -0.02528,-0.0325 -0.0072,-0.12277 0.01805,-0.0939 0.05777,-0.12999 0.04694,-0.004 0.144435,-0.007 0.101105,-0.004 0.140824,-0.007 0.04333,-0.004 0.115548,-0.0145 0.07222,-0.0108 0.101104,-0.0289 0.02889,-0.0181 0.065,-0.0469 0.03611,-0.0325 0.04333,-0.0794 0.01083,-0.0469 0,-0.10833 l -0.155267,-1.20603 h -1.408239 q -0.129991,0 -0.184154,0.0253 -0.05416,0.0253 -0.101105,0.1011 z"
           style="font-style:italic;font-variant:normal;font-weight:bold;font-stretch:normal;font-size:7.39506px;font-family:'Linux Libertine Slanted';-inkscape-font-specification:'Linux Libertine Slanted, Bold Italic';font-variant-ligatures:normal;font-variant-caps:normal;font-variant-numeric:normal;font-variant-east-asian:normal;fill:#22aa99;fill-opacity:1"
           id="path880" />
      </g>
      <text
         xml:space="preserve"
         style="font-style:normal;font-weight:normal;font-size:4.5025px;line-height:1.25;font-family:sans-serif;fill:#000000;fill-opacity:1;stroke:none;stroke-width:0.168937"
         x="50.902424"
         y="253.27678"
         id="text860"><tspan
           sodipodi:role="line"
           id="tspan858"
           x="50.902424"
           y="253.27678"
           style="stroke-width:0.168937" /></text>
      <path
         style="fill:none;stroke:none;stroke-width:0.112563px;stroke-linecap:butt;stroke-linejoin:miter;stroke-opacity:1"
         d="m 29.033473,255.17887 c 0,-0.85505 3.587958,-1.549 8.008835,-1.549 4.420877,0 8.008835,0.69395 8.008835,1.549 0,0.85505 -3.587958,1.549 -8.008835,1.549 -4.420877,0 -8.008835,-0.69395 -8.008835,-1.549 z"
         id="path868"
         inkscape:path-effect="#path-effect870"
         inkscape:original-d="M 29.033473,255.17887 H 45.051134" />
      <path
         style="fill:none;stroke:#22aa99;stroke-width:2.25125;stroke-linecap:round;stroke-linejoin:miter;stroke-miterlimit:4;stroke-dasharray:none;stroke-opacity:1"
         d="m 32.230252,255.17887 12.820884,0"
         id="path876"
         sodipodi:nodetypes="cc" />
      <path
         style="fill:none;fill-opacity:1;stroke:#22aa99;stroke-width:2.25125;stroke-linecap:round;stroke-linejoin:miter;stroke-miterlimit:4;stroke-dasharray:none;stroke-opacity:1"
         d="m 32.230253,271.20778 12.820883,0"
         id="path876-0"
         sodipodi:nodetypes="cc" />
      <path
         style="fill:none;fill-opacity:1;stroke:#22aa99;stroke-width:2.25125;stroke-linecap:round;stroke-linejoin:miter;stroke-miterlimit:4;stroke-dasharray:none;stroke-opacity:1"
         d="m 32.230253,263.19333 12.820883,0"
         id="path876-2"
         sodipodi:nodetypes="cc" />
      <g
         aria-label="C"
         transform="matrix(1.1771155,0,0,1.1771155,-11.474886,-38.095293)"
         id="text857-6"
         style="font-style:normal;font-weight:normal;font-size:4.5025px;line-height:1.25;font-family:sans-serif;letter-spacing:0px;word-spacing:0px;white-space:pre;shape-inside:url(#rect859-8);fill:#000000;fill-opacity:1;stroke:none;stroke-width:1.50083;stroke-linecap:round;stroke-linejoin:round;stroke-miterlimit:4;stroke-dasharray:none;stroke-opacity:1">
        <path
           d="m 31.954396,265.18219 q -1.119369,0 -1.668221,-0.46581 -0.361087,-0.30692 -0.487468,-0.8666 -0.122769,-0.5633 0.0036,-1.06882 0.126381,-0.5958 0.440526,-1.07965 0.317757,-0.48747 0.751061,-0.80161 0.433304,-0.31415 0.949659,-0.48386 0.519965,-0.17332 1.068817,-0.17332 0.397196,0 0.696898,0.0758 0.303313,0.0722 0.509132,0.15887 0.209431,0.0867 0.339422,0.10111 -0.03972,0.77633 -0.07944,1.14464 -0.184154,0.0867 -0.324978,0.0361 -0.01805,-0.20943 -0.05777,-0.36831 -0.03972,-0.16249 -0.129992,-0.32497 -0.08666,-0.1661 -0.223873,-0.27082 -0.133603,-0.10833 -0.357477,-0.17332 -0.223873,-0.0686 -0.519965,-0.0686 -0.646345,0 -1.187976,0.60302 -0.54163,0.60301 -0.729395,1.48406 -0.108326,0.59219 -0.02167,1.07243 0.09027,0.48025 0.386363,0.78356 0.296091,0.30331 0.714952,0.30331 0.942437,0 1.805434,-0.76911 0.03972,0 0.08305,0.0253 0.04694,0.0253 0.08305,0.0614 0.03611,0.0361 0.04694,0.0686 -0.974935,0.9966 -2.090694,0.9966 z"
           style="font-style:italic;font-variant:normal;font-weight:bold;font-stretch:normal;font-size:7.39506px;font-family:'Linux Libertine Slanted';-inkscape-font-specification:'Linux Libertine Slanted, Bold Italic';font-variant-ligatures:normal;font-variant-caps:normal;font-variant-numeric:normal;font-variant-east-asian:normal;fill:#22aa99;fill-opacity:1"
           id="path886" />
      </g>
      <g
         aria-label="B"
         transform="matrix(1.1771155,0,0,1.1771155,-11.507958,-46.156269)"
         id="text857-3"
         style="font-style:normal;font-weight:normal;font-size:4.5025px;line-height:1.25;font-family:sans-serif;letter-spacing:0px;word-spacing:0px;white-space:pre;shape-inside:url(#rect859-83);fill:#000000;fill-opacity:1;stroke:none;stroke-width:1.50083;stroke-linecap:round;stroke-linejoin:round;stroke-miterlimit:4;stroke-dasharray:none;stroke-opacity:1">
        <path
           d="m 31.705246,260.95386 -0.29248,1.37574 h 0.41525 q 0.859387,0 1.036319,-0.83411 0.180544,-0.85939 -0.574128,-0.85939 -0.335811,0 -0.440526,0.0686 -0.104715,0.0686 -0.144435,0.24915 z m -0.357476,1.68627 -0.393584,1.84877 q -0.03972,0.18054 0.0325,0.25276 0.07583,0.0722 0.386363,0.0722 0.234707,0 0.429694,-0.0469 0.198598,-0.0506 0.335811,-0.13722 0.140824,-0.0867 0.245539,-0.19137 0.104715,-0.10472 0.173321,-0.23471 0.07222,-0.12999 0.111937,-0.24193 0.03972,-0.11193 0.06861,-0.2347 0.104715,-0.4983 -0.104715,-0.79078 -0.209431,-0.2961 -0.761894,-0.2961 z m -0.02167,-2.30012 q 0.101104,0 0.476635,-0.007 0.37553,-0.007 0.577739,-0.007 0.361087,0 0.639124,0.0505 0.278037,0.0505 0.440526,0.13721 0.1661,0.0831 0.278037,0.1986 0.115547,0.11194 0.148045,0.24193 0.0325,0.12638 0.04333,0.26359 0.01083,0.1336 -0.02889,0.25998 -0.03972,0.18416 -0.173322,0.37553 -0.133602,0.19138 -0.328589,0.34665 -0.194987,0.15165 -0.411639,0.24193 l -0.0036,0.0144 q 0.545241,0.15166 0.743839,0.4658 0.198598,0.31415 0.09388,0.81245 -0.133603,0.62468 -0.686065,1.00743 -0.548853,0.38275 -1.614059,0.38275 -0.241928,0 -0.660789,-0.007 -0.418861,-0.007 -0.548852,-0.007 l -1.141035,0.0144 q -0.04694,-0.0325 -0.02889,-0.12277 0.02167,-0.0939 0.08305,-0.12999 0.184155,-0.0108 0.278037,-0.0253 0.09388,-0.0181 0.198598,-0.0831 0.104715,-0.065 0.1661,-0.19499 0.065,-0.1336 0.111937,-0.36109 l 0.631902,-2.96452 q 0.03972,-0.18055 0.03611,-0.30332 -0.0036,-0.12276 -0.02889,-0.19137 -0.02528,-0.0686 -0.108326,-0.10472 -0.07944,-0.0361 -0.155268,-0.0469 -0.07222,-0.0108 -0.216652,-0.0181 -0.04694,-0.0325 -0.02889,-0.12638 0.01805,-0.0939 0.08305,-0.12638 0.837722,0.0144 1.133813,0.0144 z"
           style="font-style:italic;font-variant:normal;font-weight:bold;font-stretch:normal;font-size:7.39506px;font-family:'Linux Libertine Slanted';-inkscape-font-specification:'Linux Libertine Slanted, Bold Italic';font-variant-ligatures:normal;font-variant-caps:normal;font-variant-numeric:normal;font-variant-east-asian:normal;fill:#22aa99;fill-opacity:1"
           id="path883" />
      </g>
    </g>
  </g>
</svg>
