<?xml version="1.0" encoding="UTF-8" standalone="no"?>
<svg
   xmlns:dc="http://purl.org/dc/elements/1.1/"
   xmlns:cc="http://creativecommons.org/ns#"
   xmlns:rdf="http://www.w3.org/1999/02/22-rdf-syntax-ns#"
   xmlns:svg="http://www.w3.org/2000/svg"
   xmlns="http://www.w3.org/2000/svg"
   xmlns:sodipodi="http://sodipodi.sourceforge.net/DTD/sodipodi-0.dtd"
   xmlns:inkscape="http://www.inkscape.org/namespaces/inkscape"
   inkscape:version="1.0 (4035a4fb49, 2020-05-01)"
   sodipodi:docname="mailopen.svg"
   id="svg4532"
   version="1.1"
   viewBox="0 0 67.733332 67.733335"
   height="256"
   width="256">
  <defs
     id="defs4526" />
  <sodipodi:namedview
     inkscape:document-rotation="0"
     inkscape:window-maximized="1"
     inkscape:window-y="0"
     inkscape:window-x="0"
     inkscape:window-height="854"
     inkscape:window-width="1600"
     units="px"
     showgrid="false"
     inkscape:current-layer="layer1"
     inkscape:document-units="mm"
     inkscape:cy="184.72173"
     inkscape:cx="106.78907"
     inkscape:zoom="1.8756757"
     inkscape:pageshadow="2"
     inkscape:pageopacity="0.0"
     borderopacity="1.0"
     bordercolor="#666666"
     pagecolor="#ffffff"
     id="base" />
  <metadata
     id="metadata4529">
    <rdf:RDF>
      <cc:Work
         rdf:about="">
        <dc:format>image/svg+xml</dc:format>
        <dc:type
           rdf:resource="http://purl.org/dc/dcmitype/StillImage" />
        <dc:title />
      </cc:Work>
    </rdf:RDF>
  </metadata>
  <g
     transform="translate(0,-229.26665)"
     id="layer1"
     inkscape:groupmode="layer"
     inkscape:label="Ebene 1">
    <path
       sodipodi:nodetypes="cccssccccccsscccccccsscccccc"
       inkscape:connector-curvature="0"
       id="rect2269"
       d="M 34.018079,232.18749 6.9473793,255.8305 v 0 c 1.0542532,-0.89609 2.4213047,-1.43661 3.9196577,-1.43661 h 46.679837 c 1.498571,0 2.865342,0.5408 3.919657,1.43712 v 0 z m 27.448452,23.64352 -27.259833,18.40663 27.259833,18.40663 c 1.302829,-1.1076 2.128036,-2.75877 2.128036,-4.61057 v -27.59212 c 0,-1.8518 -0.825207,-3.50297 -2.128036,-4.61057 z m 0,36.81326 c -1.054315,0.89632 -2.421086,1.43712 -3.919657,1.43712 v 0 z M 34.206698,274.23764 6.9473793,255.8305 c -1.3030969,1.10759 -2.1280352,2.75906 -2.1280352,4.61108 v 27.59212 c 0,1.85202 0.8249383,3.50349 2.1280352,4.61108 z m -27.2593187,18.40714 3.9196577,1.43661 v 0 c -1.498353,0 -2.8654045,-0.54052 -3.9196577,-1.43661 z"
       style="opacity:1;fill:#d9d9d9;fill-opacity:1;stroke:#1f1f1f;stroke-width:3;stroke-miterlimit:4;stroke-dasharray:none;stroke-dashoffset:0;stroke-opacity:1;paint-order:stroke fill markers" />
    <path
       sodipodi:nodetypes="scccssccsscc"
       id="rect2269-0"
       d="m 10.867037,254.39389 c -1.4983528,0 -3.3331265,0.74097 -3.9196578,1.4366 l 27.2593188,18.40715 27.259833,-18.40663 c -0.65341,-0.76269 -2.421086,-1.43712 -3.919657,-1.43712 z m 23.339661,21.64782 -27.2593188,16.60307 c 1.4551573,1.63108 2.421305,1.43661 3.9196578,1.43661 h 46.679837 c 1.498571,0 2.865343,-0.27353 3.919657,-1.43712 z"
       style="opacity:1;fill:#d9d9d9;fill-opacity:1;stroke:#1f1f1f;stroke-width:3;stroke-miterlimit:4;stroke-dasharray:none;stroke-dashoffset:0;stroke-opacity:1;paint-order:stroke fill markers"
       inkscape:connector-curvature="0" />
    <path
       inkscape:connector-curvature="0"
       id="path816"
       d="M 34.018079,232.18749 6.9473793,255.8305 34.206698,274.23764 61.466531,255.83101 Z"
       style="fill:#101010;stroke:#101010;stroke-width:0.2;stroke-linecap:butt;stroke-linejoin:miter;stroke-opacity:1;fill-opacity:1;stroke-miterlimit:4;stroke-dasharray:none" />
  </g>
</svg>
