<?xml version="1.0" encoding="UTF-8" standalone="no"?>
<svg
   xmlns:dc="http://purl.org/dc/elements/1.1/"
   xmlns:cc="http://creativecommons.org/ns#"
   xmlns:rdf="http://www.w3.org/1999/02/22-rdf-syntax-ns#"
   xmlns:svg="http://www.w3.org/2000/svg"
   xmlns="http://www.w3.org/2000/svg"
   xmlns:sodipodi="http://sodipodi.sourceforge.net/DTD/sodipodi-0.dtd"
   xmlns:inkscape="http://www.inkscape.org/namespaces/inkscape"
   width="256"
   height="256"
   viewBox="0 0 67.733332 67.733335"
   version="1.1"
   id="svg4532"
   sodipodi:docname="accessories-character-map.svg"
   inkscape:version="1.0.1 (3bc2e813f5, 2020-09-07)">
  <defs
     id="defs4526">
    <rect
       x="22.568958"
       y="251.83561"
       width="48.982512"
       height="31.050947"
       id="rect853" />
    <rect
       id="rect1046"
       height="37.676667"
       width="37.676666"
       y="244.29498"
       x="15.028333" />
    <inkscape:perspective
       sodipodi:type="inkscape:persp3d"
       inkscape:vp_x="0 : 33.866667 : 1"
       inkscape:vp_y="0 : 1000 : 0"
       inkscape:vp_z="67.733332 : 33.866667 : 1"
       inkscape:persp3d-origin="33.866666 : 22.577778 : 1"
       id="perspective848" />
  </defs>
  <sodipodi:namedview
     inkscape:guide-bbox="true"
     showguides="true"
     id="base"
     pagecolor="#ffffff"
     bordercolor="#666666"
     borderopacity="1.0"
     inkscape:pageopacity="0.0"
     inkscape:pageshadow="2"
     inkscape:zoom="2"
     inkscape:cx="54.59166"
     inkscape:cy="98.43629"
     inkscape:document-units="px"
     inkscape:current-layer="layer1"
     showgrid="false"
     units="px"
     inkscape:window-width="1920"
     inkscape:window-height="1024"
     inkscape:window-x="0"
     inkscape:window-y="0"
     inkscape:window-maximized="1"
     inkscape:document-rotation="0">
    <sodipodi:guide
       id="guide853"
       orientation="0,256"
       position="0,67.733334" />
    <sodipodi:guide
       inkscape:color="rgb(0,0,255)"
       inkscape:locked="false"
       inkscape:label=""
       id="guide855"
       orientation="-1,0"
       position="67.733,67.733334" />
    <sodipodi:guide
       id="guide857"
       orientation="0,-256"
       position="67.733334,0" />
    <sodipodi:guide
       inkscape:color="rgb(0,0,255)"
       inkscape:locked="false"
       inkscape:label=""
       id="guide859"
       orientation="-1,0"
       position="0,0" />
    <sodipodi:guide
       inkscape:color="rgb(0,0,255)"
       inkscape:locked="false"
       inkscape:label=""
       id="guide1430"
       orientation="0,1"
       position="22.568958,45.164375" />
    <sodipodi:guide
       inkscape:color="rgb(0,0,255)"
       inkscape:locked="false"
       inkscape:label=""
       id="guide1432"
       orientation="0,1"
       position="45.137917,22.595417" />
    <sodipodi:guide
       id="guide1434"
       orientation="1,0"
       position="22.568958,45.164376" />
    <sodipodi:guide
       id="guide1436"
       orientation="1,0"
       position="45.137916,22.595418" />
    <sodipodi:guide
       inkscape:color="rgb(0,0,255)"
       inkscape:locked="false"
       inkscape:label=""
       id="guide1438"
       orientation="0,1"
       position="7.5141667,60.219167" />
    <sodipodi:guide
       id="guide1440"
       orientation="1,0"
       position="7.5141667,60.219167" />
    <sodipodi:guide
       inkscape:color="rgb(0,0,255)"
       inkscape:locked="false"
       inkscape:label=""
       id="guide1442"
       orientation="0,1"
       position="60.219167,7.5141667" />
    <sodipodi:guide
       id="guide1444"
       orientation="1,0"
       position="60.219167,7.5141667" />
    <sodipodi:guide
       inkscape:color="rgb(0,0,255)"
       inkscape:locked="false"
       inkscape:label=""
       id="guide1446"
       orientation="0,1"
       position="15.028333,52.705" />
    <sodipodi:guide
       id="guide1448"
       orientation="1,0"
       position="15.028333,52.705001" />
    <sodipodi:guide
       inkscape:color="rgb(0,0,255)"
       inkscape:locked="false"
       inkscape:label=""
       id="guide1450"
       orientation="0,1"
       position="52.705,15.028333" />
    <sodipodi:guide
       id="guide1452"
       orientation="1,0"
       position="52.704999,15.028333" />
  </sodipodi:namedview>
  <metadata
     id="metadata4529">
    <rdf:RDF>
      <cc:Work
         rdf:about="">
        <dc:format>image/svg+xml</dc:format>
        <dc:type
           rdf:resource="http://purl.org/dc/dcmitype/StillImage" />
        <dc:title></dc:title>
      </cc:Work>
    </rdf:RDF>
  </metadata>
  <g
     inkscape:label="Ebene 1"
     inkscape:groupmode="layer"
     id="layer1"
     transform="translate(0,-229.26665)">
    <rect
       y="143.48198"
       x="191.37668"
       height="37.268055"
       width="37.268059"
       id="rect852"
       style="fill:#d9d9d9;fill-opacity:1;stroke:#1f1f1f;stroke-width:3.52777779;stroke-linecap:round;stroke-linejoin:round;stroke-miterlimit:4;stroke-dasharray:none;paint-order:stroke fill markers"
       transform="rotate(45)" />
    <text
       xml:space="preserve"
       id="text851"
       style="font-style:normal;font-weight:normal;font-size:10.5833px;line-height:1.25;font-family:sans-serif;white-space:pre;shape-inside:url(#rect853);fill:#1f1f1f;fill-opacity:1;stroke:none;"
       transform="translate(0.09354433,-0.9149063)" />
    <g
       aria-label="äbć"
       id="text862"
       style="font-style:normal;font-weight:normal;font-size:10.5833px;line-height:1.25;font-family:sans-serif;fill:#1f1f1f;fill-opacity:1;stroke:none;stroke-width:0.264583">
      <path
         d="m 23.872763,256.72994 q 0,-0.51814 0.352779,-0.87092 0.363802,-0.35277 0.859896,-0.35277 0.496095,0 0.859897,0.3638 0.363802,0.3638 0.363802,0.85989 0,0.4961 -0.363802,0.84888 -0.363802,0.34175 -0.859897,0.34175 -0.496094,0 -0.859896,-0.34175 -0.352779,-0.35278 -0.352779,-0.84888 z m -3.737243,0.84888 q -0.352778,-0.35278 -0.352778,-0.84888 0,-0.49609 0.352778,-0.85989 0.363803,-0.3638 0.859897,-0.3638 0.518143,0 0.870921,0.35277 0.352778,0.34176 0.352778,0.87092 0,0.4961 -0.363802,0.84888 -0.352779,0.34175 -0.859897,0.34175 -0.496094,0 -0.859897,-0.34175 z m 4.156168,10.95817 q -1.510332,1.31189 -2.822226,1.30087 -1.444185,0 -2.072571,-0.58429 -0.628386,-0.58429 -0.628386,-1.78594 0,-1.24575 0.97014,-1.91823 0.97014,-0.67249 2.954517,-1.25677 l 1.631598,-0.47405 q 0,-2.00643 -0.396875,-2.67891 -0.396875,-0.68351 -1.190626,-0.68351 -0.672483,0 -1.135505,0.20947 -0.463021,0.20946 -0.463021,0.57326 0,0.25356 0.06615,0.56224 0.06615,0.29766 0.06615,0.4079 0,0.27561 -0.363803,0.57326 -0.352778,0.28664 -0.804775,0.28664 -1.058334,0 -1.069359,-0.94809 0,-0.97014 1.344967,-1.74185 1.344967,-0.78272 2.678909,-0.78272 1.653648,0 2.678909,0.84887 1.025261,0.83785 1.025261,3.05373 v 3.27423 q 0,0.49609 0.02205,0.76067 0.02205,0.25356 0.09922,0.56224 0.07717,0.29766 0.264584,0.44098 0.198437,0.13229 0.507118,0.13229 0.319705,0 0.496094,-0.17639 0.187414,-0.18741 0.209462,-0.18741 0.06615,0 0.176389,0.17639 0.121268,0.16536 0.121268,0.2756 0,0.0882 -0.253559,0.34176 -0.242535,0.24253 -0.771702,0.49609 -0.518143,0.24254 -1.080384,0.24254 -0.992188,0 -1.499307,-0.30868 -0.507118,-0.31971 -0.705556,-0.99219 z m 0.03307,-0.83785 v -3.03169 l -1.289845,0.38585 q -1.102431,0.34176 -1.499307,0.82683 -0.396875,0.48507 -0.396875,1.25677 0,1.46623 1.422137,1.46623 0.63941,0 1.76389,-0.90399 z"
         style="font-style:normal;font-variant:normal;font-weight:600;font-stretch:normal;font-size:22.5778px;font-family:'Linux Libertine';-inkscape-font-specification:'Linux Libertine, Semi-Bold';font-variant-ligatures:normal;font-variant-caps:normal;font-variant-numeric:normal;font-variant-east-asian:normal;fill:#1f1f1f;fill-opacity:1;stroke-width:0.264583"
         id="path916" />
      <path
         d="m 32.868606,268.34957 q 0.496094,0.56224 1.12448,0.57327 1.311894,0 1.995402,-1.15755 0.694532,-1.16858 0.694532,-3.11989 0,-1.65364 -0.628386,-2.77812 -0.617362,-1.12448 -1.444186,-1.12448 -0.650435,0 -1.741842,0.70555 z m -2.480471,-11.44324 q 0,-1.03628 -0.154341,-1.34496 -0.143316,-0.30868 -0.529167,-0.30868 l -0.71658,-0.0441 q -0.132292,0 -0.143317,-0.11024 l -0.06615,-0.65044 q 0.837849,-0.0661 2.116669,-0.24253 1.289845,-0.18742 1.675696,-0.35278 0.363803,0 0.363803,0.23151 -0.06615,0.90399 -0.06615,2.37023 v 4.09002 q 1.311894,-0.94809 2.304082,-0.94809 1.719794,0 2.91042,1.25677 1.190626,1.24575 1.190626,3.27422 0,2.56867 -1.576477,4.14514 -1.576478,1.56546 -3.593928,1.56546 -1.400088,0 -2.370228,-1.12448 l -0.672483,1.20165 -0.771702,-0.14332 q 0.08819,-0.7276 0.09922,-1.83004 z"
         style="font-style:normal;font-variant:normal;font-weight:600;font-stretch:normal;font-size:22.5778px;font-family:'Linux Libertine';-inkscape-font-specification:'Linux Libertine, Semi-Bold';font-variant-ligatures:normal;font-variant-caps:normal;font-variant-numeric:normal;font-variant-east-asian:normal;fill:#1f1f1f;fill-opacity:1;stroke-width:0.264583"
         id="path918" />
      <path
         d="m 46.141883,254.40381 q 0.132292,-0.0441 0.363803,-0.0441 0.859897,0 1.278821,0.54019 l 0.23151,0.51814 -2.711982,2.43637 q -0.429948,0.36381 -0.859896,0.36381 -0.132292,0 -0.25356,-0.0992 -0.110243,-0.11024 -0.110243,-0.22049 0,-0.27561 0.187414,-0.54019 z m 3.152955,13.25123 q -1.080383,2.19384 -3.538806,2.18282 -2.348179,0 -3.571878,-1.24575 -1.212675,-1.25677 -1.212675,-3.51676 0,-2.37023 1.422137,-3.92465 1.422137,-1.55443 3.450611,-1.55443 1.741842,0 2.65686,0.6835 0.915018,0.67249 0.915018,1.66468 0,0.54019 -0.30868,0.90399 -0.308681,0.35278 -0.826824,0.35278 -0.540192,0 -0.89297,-0.28663 -0.341754,-0.29766 -0.385851,-0.77171 -0.15434,-1.59852 -1.245748,-1.59852 -0.926042,0 -1.576477,1.06936 -0.63941,1.06936 -0.63941,2.89939 0,1.78594 0.826823,2.98759 0.826824,1.19063 1.973353,1.19063 1.201651,0 2.513544,-1.46624 z"
         style="font-style:normal;font-variant:normal;font-weight:600;font-stretch:normal;font-size:22.5778px;font-family:'Linux Libertine';-inkscape-font-specification:'Linux Libertine, Semi-Bold';font-variant-ligatures:normal;font-variant-caps:normal;font-variant-numeric:normal;font-variant-east-asian:normal;fill:#1f1f1f;fill-opacity:1;stroke-width:0.264583"
         id="path920" />
    </g>
  </g>
</svg>
