<?xml version="1.0" encoding="UTF-8" standalone="no"?>
<svg
   xmlns:dc="http://purl.org/dc/elements/1.1/"
   xmlns:cc="http://creativecommons.org/ns#"
   xmlns:rdf="http://www.w3.org/1999/02/22-rdf-syntax-ns#"
   xmlns:svg="http://www.w3.org/2000/svg"
   xmlns="http://www.w3.org/2000/svg"
   xmlns:sodipodi="http://sodipodi.sourceforge.net/DTD/sodipodi-0.dtd"
   xmlns:inkscape="http://www.inkscape.org/namespaces/inkscape"
   inkscape:version="1.0.1 (3bc2e813f5, 2020-09-07)"
   sodipodi:docname="preferences-desktop-screensaver.svg"
   id="svg4532"
   version="1.1"
   viewBox="0 0 67.733332 67.733335"
   height="256"
   width="256">
  <defs
     id="defs4526">
    <rect
       id="rect884"
       height="15.054792"
       width="15.054791"
       y="236.78082"
       x="7.5141667" />
    <marker
       inkscape:stockid="Arrow1Mend"
       orient="auto"
       refY="0.0"
       refX="0.0"
       id="Arrow1Mend"
       style="overflow:visible;"
       inkscape:isstock="true">
      <path
         id="path1186"
         d="M 0.0,0.0 L 5.0,-5.0 L -12.5,0.0 L 5.0,5.0 L 0.0,0.0 z "
         style="fill-rule:evenodd;stroke:#000000;stroke-width:1pt;stroke-opacity:1;fill:#000000;fill-opacity:1"
         transform="scale(0.4) rotate(180) translate(10,0)" />
    </marker>
    <marker
       inkscape:stockid="Arrow1Lend"
       orient="auto"
       refY="0.0"
       refX="0.0"
       id="Arrow1Lend"
       style="overflow:visible;"
       inkscape:isstock="true">
      <path
         id="path1180"
         d="M 0.0,0.0 L 5.0,-5.0 L -12.5,0.0 L 5.0,5.0 L 0.0,0.0 z "
         style="fill-rule:evenodd;stroke:#000000;stroke-width:1pt;stroke-opacity:1;fill:#000000;fill-opacity:1"
         transform="scale(0.8) rotate(180) translate(12.5,0)" />
    </marker>
    <marker
       inkscape:stockid="Arrow2Lstart"
       orient="auto"
       refY="0.0"
       refX="0.0"
       id="Arrow2Lstart"
       style="overflow:visible"
       inkscape:isstock="true">
      <path
         id="path1195"
         style="fill-rule:evenodd;stroke-width:0.625;stroke-linejoin:round;stroke:#000000;stroke-opacity:1;fill:#000000;fill-opacity:1"
         d="M 8.7185878,4.0337352 L -2.2072895,0.016013256 L 8.7185884,-4.0017078 C 6.9730900,-1.6296469 6.9831476,1.6157441 8.7185878,4.0337352 z "
         transform="scale(1.1) translate(1,0)" />
    </marker>
    <rect
       x="15.028333"
       y="244.29498"
       width="37.676666"
       height="37.676667"
       id="rect1046" />
    <inkscape:perspective
       id="perspective848"
       inkscape:persp3d-origin="33.866666 : 22.577778 : 1"
       inkscape:vp_z="67.733332 : 33.866667 : 1"
       inkscape:vp_y="0 : 1000 : 0"
       inkscape:vp_x="0 : 33.866667 : 1"
       sodipodi:type="inkscape:persp3d" />
    <inkscape:path-effect
       effect="dashed_stroke"
       id="path-effect2904"
       is_visible="true"
       lpeversion="1"
       numberdashes="7"
       holefactor="0"
       splitsegments="false"
       halfextreme="true"
       unifysegment="false"
       message="Eine Füllung kann mit dem &lt;b&gt;Zwischen vielen füllen&lt;/b&gt;-Pfadeffekt hinzugefügt werden." />
    <rect
       x="7.5141668"
       y="236.78082"
       width="15.054791"
       height="15.054792"
       id="rect884-9" />
    <rect
       x="7.5141668"
       y="236.78082"
       width="15.054791"
       height="15.054792"
       id="rect901" />
    <rect
       id="rect884-9-3"
       height="15.054792"
       width="15.054791"
       y="236.78082"
       x="7.5141668" />
    <rect
       id="rect930"
       height="15.054792"
       width="15.054791"
       y="236.78082"
       x="7.5141668" />
  </defs>
  <sodipodi:namedview
     inkscape:document-rotation="0"
     inkscape:window-maximized="1"
     inkscape:window-y="0"
     inkscape:window-x="0"
     inkscape:window-height="1024"
     inkscape:window-width="1920"
     units="px"
     showgrid="false"
     inkscape:current-layer="layer1"
     inkscape:document-units="px"
     inkscape:cy="136.27427"
     inkscape:cx="176.12411"
     inkscape:zoom="1.6339617"
     inkscape:pageshadow="2"
     inkscape:pageopacity="0.0"
     borderopacity="1.0"
     bordercolor="#666666"
     pagecolor="#ffffff"
     id="base"
     showguides="true"
     inkscape:guide-bbox="true">
    <sodipodi:guide
       position="0,67.733334"
       orientation="0,256"
       id="guide853" />
    <sodipodi:guide
       position="67.733,67.733334"
       orientation="-1,0"
       id="guide855"
       inkscape:label=""
       inkscape:locked="false"
       inkscape:color="rgb(0,0,255)" />
    <sodipodi:guide
       position="67.733334,0"
       orientation="0,-256"
       id="guide857" />
    <sodipodi:guide
       position="0,0"
       orientation="-1,0"
       id="guide859"
       inkscape:label=""
       inkscape:locked="false"
       inkscape:color="rgb(0,0,255)" />
    <sodipodi:guide
       position="22.568958,45.164375"
       orientation="0,1"
       id="guide1430"
       inkscape:label=""
       inkscape:locked="false"
       inkscape:color="rgb(0,0,255)" />
    <sodipodi:guide
       position="45.137917,22.595417"
       orientation="0,1"
       id="guide1432"
       inkscape:label=""
       inkscape:locked="false"
       inkscape:color="rgb(0,0,255)" />
    <sodipodi:guide
       position="22.568958,45.164376"
       orientation="1,0"
       id="guide1434" />
    <sodipodi:guide
       position="45.137916,22.595418"
       orientation="1,0"
       id="guide1436" />
    <sodipodi:guide
       position="7.5141667,60.219167"
       orientation="0,1"
       id="guide1438"
       inkscape:label=""
       inkscape:locked="false"
       inkscape:color="rgb(0,0,255)" />
    <sodipodi:guide
       position="7.5141667,60.219167"
       orientation="1,0"
       id="guide1440" />
    <sodipodi:guide
       position="60.219167,7.5141667"
       orientation="0,1"
       id="guide1442"
       inkscape:label=""
       inkscape:locked="false"
       inkscape:color="rgb(0,0,255)" />
    <sodipodi:guide
       position="60.219167,7.5141667"
       orientation="1,0"
       id="guide1444" />
    <sodipodi:guide
       position="15.028333,52.705"
       orientation="0,1"
       id="guide1446"
       inkscape:label=""
       inkscape:locked="false"
       inkscape:color="rgb(0,0,255)" />
    <sodipodi:guide
       position="15.028333,52.705001"
       orientation="1,0"
       id="guide1448" />
    <sodipodi:guide
       position="52.705,15.028333"
       orientation="0,1"
       id="guide1450"
       inkscape:label=""
       inkscape:locked="false"
       inkscape:color="rgb(0,0,255)" />
    <sodipodi:guide
       position="52.704999,15.028333"
       orientation="1,0"
       id="guide1452" />
  </sodipodi:namedview>
  <metadata
     id="metadata4529">
    <rdf:RDF>
      <cc:Work
         rdf:about="">
        <dc:format>image/svg+xml</dc:format>
        <dc:type
           rdf:resource="http://purl.org/dc/dcmitype/StillImage" />
        <dc:title />
      </cc:Work>
    </rdf:RDF>
  </metadata>
  <g
     transform="translate(0,-229.26665)"
     id="layer1"
     inkscape:groupmode="layer"
     inkscape:label="Ebene 1">
    <rect
       style="fill:#d9d9d9;fill-opacity:1;stroke:#1f1f1f;stroke-width:3.52778;stroke-linecap:round;stroke-linejoin:round;stroke-miterlimit:4;stroke-dasharray:none;paint-order:stroke fill markers"
       id="rect852"
       width="52.705002"
       height="52.704994"
       x="7.5141668"
       y="236.78082" />
    <rect
       style="fill:#1f1f1f;fill-opacity:1;stroke:none;stroke-width:2.13928;stroke-linecap:round;stroke-linejoin:round;stroke-miterlimit:4;stroke-dasharray:none;paint-order:stroke fill markers"
       id="rect854"
       width="45.692589"
       height="45.692589"
       x="11.020371"
       y="240.28702" />
    <g
       id="g837"
       transform="matrix(0.34285166,0,0,0.34285166,17.765275,172.34836)" />
    <g
       id="g1689"
       transform="matrix(1.4954435,0,0,1.4954435,-19.661973,-126.12399)" />
    <g
       aria-label="z"
       transform="matrix(2.8748774,0,0,2.8748774,-7.556041,-428.7348)"
       id="text882"
       style="font-style:normal;font-weight:normal;font-size:10.5833px;line-height:1.25;font-family:sans-serif;letter-spacing:0px;word-spacing:0px;white-space:pre;shape-inside:url(#rect884);fill:#000000;fill-opacity:1;stroke:none;stroke-width:1.00013;stroke-miterlimit:4;stroke-dasharray:none">
      <path
         d="m 12.678564,241.96239 q 0.237023,0.0717 0.424436,0.31971 -0.176389,0.18741 -3.3128067,3.4451 0.3252177,-0.0827 0.8378477,0.0716 0.0882,0.0276 0.225999,0.0772 0.137804,0.0496 0.231511,0.0827 0.09922,0.0331 0.225998,0.0606 0.132292,0.0276 0.253559,0.0276 0.104731,0 0.176389,-0.011 0.07166,-0.0165 0.20395,-0.0772 0.132292,-0.0606 0.28112,-0.21498 0.148829,-0.15985 0.314193,-0.4079 0.25356,-0.006 0.347266,0.2701 -0.402387,0.83233 -0.931554,1.19062 -0.523656,0.35829 -1.063847,0.35829 -0.606337,0 -1.1189682,-0.23702 -0.4630213,-0.21497 -0.8213116,-0.20946 -0.1984377,0.0661 -0.5291672,0.47404 -0.4023876,-0.0606 -0.4740456,-0.22048 0.055122,-0.14332 0.8874575,-1.00321 1.6205741,-1.65916 2.5355931,-2.6293 -0.08268,0 -0.214974,0.011 -0.132292,0.011 -0.214975,0.011 -0.137804,0 -0.264583,-0.0386 -0.121268,-0.0386 -0.292145,-0.0772 -0.165364,-0.0386 -0.4023872,-0.0386 -0.2535593,0 -0.6063374,0.20395 -0.3527781,0.20395 -0.451997,0.42444 -0.2535593,0 -0.3582903,-0.12127 0.1763891,-0.51814 0.6890198,-1.06384 0.5181429,-0.55122 0.8874571,-0.55122 0.418924,0 0.865409,0.0717 0.451997,0.0717 0.89297,0.19844 0.09922,0.0276 0.237023,0.0276 0.209462,-0.0772 0.540191,-0.42444 z"
         style="font-style:italic;font-variant:normal;font-weight:bold;font-stretch:normal;font-size:11.2889px;font-family:'Linux Libertine';-inkscape-font-specification:'Linux Libertine, Bold Italic';font-variant-ligatures:normal;font-variant-caps:normal;font-variant-numeric:normal;font-variant-east-asian:normal;fill:#d9d9d9;fill-opacity:1;stroke-width:1.00013;stroke-miterlimit:4;stroke-dasharray:none"
         id="path903" />
    </g>
    <g
       aria-label="Z"
       transform="matrix(8.5884819,0,0,8.5884819,-42.598788,-1839.836)"
       id="text882-6"
       style="font-style:normal;font-weight:normal;font-size:10.5833px;line-height:1.25;font-family:sans-serif;letter-spacing:0px;word-spacing:0px;white-space:pre;shape-inside:url(#rect884-9);fill:#000000;fill-opacity:1;stroke:none;stroke-width:1.00013;stroke-miterlimit:4;stroke-dasharray:none">
      <path
         d="m 9.1625959,245.97243 q 0.1802312,0 0.3393715,-0.14189 0.1591404,-0.14188 0.2665122,-0.37963 0.1016197,0 0.1438015,0.0192 -0.1495536,0.49084 -0.2358345,0.69408 0,0.0115 -0.019174,0.0115 -0.3777187,-0.0307 -0.8704785,-0.0307 H 7.6593907 q -0.070942,0 -0.059438,-0.0594 0.00767,-0.0441 0.047934,-0.0901 l 1.8214858,-2.12443 q 0.015339,-0.0192 0.024926,-0.0307 0.00959,-0.0115 0.017256,-0.0268 0.00959,-0.0173 0,-0.0249 -0.00767,-0.008 -0.030678,-0.008 H 8.7580343 q -0.3604625,0 -0.5771234,0.49468 -0.1016197,0 -0.1457189,-0.0192 0.1169586,-0.28185 0.2281651,-0.66341 0,-0.0115 0.019173,-0.0115 0.3777187,0.0307 0.8723959,0.0307 h 0.7573546 q 0.059438,0 0.1457189,-0.004 0.08628,-0.004 0.10162,-0.004 0.03451,0 0.04793,0.01 0.01534,0.01 0.0115,0.0288 -0.0115,0.0556 -0.116959,0.18215 l -1.7332875,2.03815 q -0.034512,0.0441 -0.044099,0.0633 -0.00959,0.0192 0.00767,0.0326 0.017256,0.0134 0.076694,0.0134 z"
         style="font-style:italic;font-variant:normal;font-weight:bold;font-stretch:normal;font-size:3.92674px;font-family:'Linux Libertine';-inkscape-font-specification:'Linux Libertine, Bold Italic';font-variant-ligatures:normal;font-variant-caps:normal;font-variant-numeric:normal;font-variant-east-asian:normal;fill:#d9d9d9;fill-opacity:1"
         id="path900" />
    </g>
    <g
       aria-label="Z"
       transform="matrix(8.5884819,0,0,8.5884819,-35.271663,-1847.944)"
       id="text882-6-3"
       style="font-style:normal;font-weight:normal;font-size:10.5833px;line-height:1.25;font-family:sans-serif;letter-spacing:0px;word-spacing:0px;white-space:pre;shape-inside:url(#rect884-9-3);fill:#000000;fill-opacity:1;stroke:none;stroke-width:1.00013;stroke-miterlimit:4;stroke-dasharray:none">
      <path
         d="m 9.1625959,245.97243 q 0.1802312,0 0.3393715,-0.14189 0.1591404,-0.14188 0.2665122,-0.37963 0.1016197,0 0.1438015,0.0192 -0.1495536,0.49084 -0.2358345,0.69408 0,0.0115 -0.019174,0.0115 -0.3777187,-0.0307 -0.8704785,-0.0307 H 7.6593907 q -0.070942,0 -0.059438,-0.0594 0.00767,-0.0441 0.047934,-0.0901 l 1.8214858,-2.12443 q 0.015339,-0.0192 0.024926,-0.0307 0.00959,-0.0115 0.017256,-0.0268 0.00959,-0.0173 0,-0.0249 -0.00767,-0.008 -0.030678,-0.008 H 8.7580343 q -0.3604625,0 -0.5771234,0.49468 -0.1016197,0 -0.1457189,-0.0192 0.1169586,-0.28185 0.2281651,-0.66341 0,-0.0115 0.019173,-0.0115 0.3777187,0.0307 0.8723959,0.0307 h 0.7573546 q 0.059438,0 0.1457189,-0.004 0.08628,-0.004 0.10162,-0.004 0.03451,0 0.04793,0.01 0.01534,0.01 0.0115,0.0288 -0.0115,0.0556 -0.116959,0.18215 l -1.7332875,2.03815 q -0.034512,0.0441 -0.044099,0.0633 -0.00959,0.0192 0.00767,0.0326 0.017256,0.0134 0.076694,0.0134 z"
         style="font-style:italic;font-variant:normal;font-weight:bold;font-stretch:normal;font-size:3.92674px;font-family:'Linux Libertine';-inkscape-font-specification:'Linux Libertine, Bold Italic';font-variant-ligatures:normal;font-variant-caps:normal;font-variant-numeric:normal;font-variant-east-asian:normal;fill:#d9d9d9;fill-opacity:1"
         id="path897" />
    </g>
  </g>
</svg>
