<?xml version="1.0" encoding="UTF-8" standalone="no"?>
<svg
   xmlns:dc="http://purl.org/dc/elements/1.1/"
   xmlns:cc="http://creativecommons.org/ns#"
   xmlns:rdf="http://www.w3.org/1999/02/22-rdf-syntax-ns#"
   xmlns:svg="http://www.w3.org/2000/svg"
   xmlns="http://www.w3.org/2000/svg"
   xmlns:sodipodi="http://sodipodi.sourceforge.net/DTD/sodipodi-0.dtd"
   xmlns:inkscape="http://www.inkscape.org/namespaces/inkscape"
   inkscape:version="1.0 (4035a4fb49, 2020-05-01)"
   sodipodi:docname="preferences-desktop-font.svg"
   id="svg4532"
   version="1.1"
   viewBox="0 0 67.733332 67.733335"
   height="256"
   width="256">
  <defs
     id="defs4526">
    <rect
       id="rect964"
       height="52.705"
       width="52.705"
       y="236.78082"
       x="7.5141667" />
    <inkscape:perspective
       id="perspective848"
       inkscape:persp3d-origin="33.866666 : 22.577778 : 1"
       inkscape:vp_z="67.733332 : 33.866667 : 1"
       inkscape:vp_y="0 : 1000 : 0"
       inkscape:vp_x="0 : 33.866667 : 1"
       sodipodi:type="inkscape:persp3d" />
    <inkscape:path-effect
       message="Eine Füllung kann mit dem &lt;b&gt;Zwischen vielen füllen&lt;/b&gt;-Pfadeffekt hinzugefügt werden."
       unifysegment="true"
       halfextreme="false"
       splitsegments="false"
       holefactor="0"
       numberdashes="4"
       lpeversion="1"
       is_visible="true"
       id="path-effect996"
       effect="dashed_stroke" />
    <inkscape:path-effect
       message="Eine Füllung kann mit dem &lt;b&gt;Zwischen vielen füllen&lt;/b&gt;-Pfadeffekt hinzugefügt werden."
       unifysegment="false"
       halfextreme="true"
       splitsegments="false"
       holefactor="0"
       numberdashes="5"
       lpeversion="1"
       is_visible="true"
       id="path-effect869"
       effect="dashed_stroke" />
  </defs>
  <sodipodi:namedview
     inkscape:document-rotation="0"
     inkscape:window-maximized="1"
     inkscape:window-y="0"
     inkscape:window-x="0"
     inkscape:window-height="854"
     inkscape:window-width="1600"
     units="px"
     showgrid="false"
     inkscape:current-layer="layer1"
     inkscape:document-units="px"
     inkscape:cy="142.43356"
     inkscape:cx="171.89045"
     inkscape:zoom="2.5216947"
     inkscape:pageshadow="2"
     inkscape:pageopacity="0.0"
     borderopacity="1.0"
     bordercolor="#666666"
     pagecolor="#ffffff"
     id="base"
     showguides="true"
     inkscape:guide-bbox="true">
    <sodipodi:guide
       position="0,67.733334"
       orientation="0,256"
       id="guide853" />
    <sodipodi:guide
       position="67.733,67.733334"
       orientation="-1,0"
       id="guide855"
       inkscape:label=""
       inkscape:locked="false"
       inkscape:color="rgb(0,0,255)" />
    <sodipodi:guide
       position="67.733334,0"
       orientation="0,-256"
       id="guide857" />
    <sodipodi:guide
       position="0,0"
       orientation="-1,0"
       id="guide859"
       inkscape:label=""
       inkscape:locked="false"
       inkscape:color="rgb(0,0,255)" />
    <sodipodi:guide
       position="22.568958,45.164375"
       orientation="0,1"
       id="guide1430"
       inkscape:label=""
       inkscape:locked="false"
       inkscape:color="rgb(0,0,255)" />
    <sodipodi:guide
       position="45.137917,22.595417"
       orientation="0,1"
       id="guide1432"
       inkscape:label=""
       inkscape:locked="false"
       inkscape:color="rgb(0,0,255)" />
    <sodipodi:guide
       position="22.568958,45.164376"
       orientation="1,0"
       id="guide1434" />
    <sodipodi:guide
       position="45.137916,22.595418"
       orientation="1,0"
       id="guide1436" />
    <sodipodi:guide
       position="7.5141667,60.219167"
       orientation="0,1"
       id="guide1438"
       inkscape:label=""
       inkscape:locked="false"
       inkscape:color="rgb(0,0,255)" />
    <sodipodi:guide
       position="7.5141667,60.219167"
       orientation="1,0"
       id="guide1440" />
    <sodipodi:guide
       position="30.573847,7.5141667"
       orientation="0,1"
       id="guide1442"
       inkscape:label=""
       inkscape:locked="false"
       inkscape:color="rgb(0,0,255)" />
    <sodipodi:guide
       position="60.219167,7.5141667"
       orientation="1,0"
       id="guide1444" />
    <sodipodi:guide
       position="15.028333,52.705"
       orientation="0,1"
       id="guide1446"
       inkscape:label=""
       inkscape:locked="false"
       inkscape:color="rgb(0,0,255)" />
    <sodipodi:guide
       position="15.028333,52.705001"
       orientation="1,0"
       id="guide1448" />
    <sodipodi:guide
       position="52.705,15.028333"
       orientation="0,1"
       id="guide1450"
       inkscape:label=""
       inkscape:locked="false"
       inkscape:color="rgb(0,0,255)" />
  </sodipodi:namedview>
  <metadata
     id="metadata4529">
    <rdf:RDF>
      <cc:Work
         rdf:about="">
        <dc:format>image/svg+xml</dc:format>
        <dc:type
           rdf:resource="http://purl.org/dc/dcmitype/StillImage" />
        <dc:title></dc:title>
      </cc:Work>
    </rdf:RDF>
  </metadata>
  <g
     transform="translate(0,-229.26665)"
     id="layer1"
     inkscape:groupmode="layer"
     inkscape:label="Ebene 1">
    <g
       style="font-style:normal;font-weight:normal;font-size:10.5833px;line-height:1.25;font-family:sans-serif;letter-spacing:0px;word-spacing:0px;white-space:pre;shape-inside:url(#rect964);fill:#d9d9d9;fill-opacity:1;stroke:#1f1f1f;stroke-width:0.749334;stroke-linecap:butt;stroke-linejoin:miter;stroke-miterlimit:4;stroke-dasharray:none;stroke-opacity:1"
       id="text962"
       transform="matrix(3.2955175,0,0,3.2955175,-17.448109,-559.83357)"
       aria-label="A">
      <path
         id="path968"
         style="font-style:italic;font-variant:normal;font-weight:bold;font-stretch:normal;font-size:22.5778px;font-family:'Linux Libertine G';-inkscape-font-specification:'Linux Libertine G, Bold Italic';font-variant-ligatures:normal;font-variant-caps:normal;font-variant-numeric:normal;font-variant-east-asian:normal;fill:#d9d9d9;fill-opacity:1;stroke:#1f1f1f;stroke-width:0.749334;stroke-linecap:butt;stroke-linejoin:miter;stroke-miterlimit:4;stroke-dasharray:none;stroke-opacity:1"
         d="m 14.668453,250.91385 h 3.296271 l -0.738629,-5.3468 h -0.143316 l -2.91042,5.06017 q -0.09922,0.16536 0.01103,0.23151 0.121267,0.0551 0.485069,0.0551 z m -3.230124,4.60816 q -0.121268,0.22049 -0.154341,0.39688 -0.02205,0.16536 0.07717,0.27561 0.110244,0.11024 0.209462,0.17638 0.110244,0.0661 0.352779,0.11025 0.253559,0.0441 0.385851,0.0661 0.132291,0.011 0.418924,0.0331 0.07717,0.0992 0.02205,0.38585 -0.05512,0.28663 -0.176389,0.38585 -1.587501,-0.0441 -2.8663221,-0.0441 -0.4299483,0 -2.0615472,0.0441 -0.07717,-0.0992 -0.022049,-0.38585 0.066146,-0.28663 0.1874134,-0.38585 0.4299484,-0.0331 0.6835077,-0.0772 0.2535593,-0.0551 0.5732644,-0.20947 0.3197052,-0.15434 0.6063375,-0.46302 0.2866322,-0.3197 0.5953133,-0.82682 l 6.956344,-11.55348 q 0.727605,0 2.568666,-1.00322 l 1.962328,12.9205 q 0.02205,0.16537 0.06615,0.30868 0.0441,0.14332 0.08819,0.25356 0.0441,0.0992 0.132291,0.18742 0.08819,0.0882 0.132292,0.15434 0.05512,0.0551 0.187414,0.11024 0.132291,0.0441 0.176389,0.0661 0.05512,0.022 0.220486,0.0551 0.176389,0.0221 0.231511,0.0331 l 0.242535,0.022 q 0.198437,0.0221 0.242535,0.0221 0.07717,0.0992 0.02205,0.38585 -0.05512,0.28663 -0.176389,0.38585 -1.587501,-0.0441 -2.899395,-0.0441 -2.061547,0 -3.693146,0.0441 -0.07717,-0.0992 -0.03307,-0.38585 0.0441,-0.28663 0.165364,-0.38585 0.132292,-0.011 0.418925,-0.0221 0.297656,-0.011 0.407899,-0.022 0.121268,-0.011 0.33073,-0.0441 0.220486,-0.0331 0.297656,-0.0882 0.08819,-0.0551 0.198438,-0.14332 0.110243,-0.0882 0.132292,-0.23151 0.02205,-0.14332 0,-0.34175 l -0.496094,-3.68212 h -4.112071 q -0.385851,0 -0.551215,0.0772 -0.165365,0.0772 -0.286633,0.30868 z" />
    </g>
  </g>
</svg>
