<?xml version="1.0" encoding="UTF-8" standalone="no"?>
<svg
   xmlns:dc="http://purl.org/dc/elements/1.1/"
   xmlns:cc="http://creativecommons.org/ns#"
   xmlns:rdf="http://www.w3.org/1999/02/22-rdf-syntax-ns#"
   xmlns:svg="http://www.w3.org/2000/svg"
   xmlns="http://www.w3.org/2000/svg"
   xmlns:sodipodi="http://sodipodi.sourceforge.net/DTD/sodipodi-0.dtd"
   xmlns:inkscape="http://www.inkscape.org/namespaces/inkscape"
   inkscape:version="1.0.1 (3bc2e813f5, 2020-09-07)"
   sodipodi:docname="utilities-terminal.svg"
   id="svg4532"
   version="1.1"
   viewBox="0 0 67.733332 67.733335"
   height="256"
   width="256">
  <defs
     id="defs4526">
    <rect
       x="15.028333"
       y="244.29498"
       width="37.676666"
       height="37.676667"
       id="rect1046" />
    <inkscape:perspective
       id="perspective848"
       inkscape:persp3d-origin="33.866666 : 22.577778 : 1"
       inkscape:vp_z="67.733332 : 33.866667 : 1"
       inkscape:vp_y="0 : 1000 : 0"
       inkscape:vp_x="0 : 33.866667 : 1"
       sodipodi:type="inkscape:persp3d" />
  </defs>
  <sodipodi:namedview
     inkscape:document-rotation="0"
     inkscape:window-maximized="1"
     inkscape:window-y="0"
     inkscape:window-x="0"
     inkscape:window-height="1024"
     inkscape:window-width="1920"
     units="px"
     showgrid="false"
     inkscape:current-layer="layer1"
     inkscape:document-units="px"
     inkscape:cy="123.54234"
     inkscape:cx="126.60406"
     inkscape:zoom="2.219079"
     inkscape:pageshadow="2"
     inkscape:pageopacity="0.0"
     borderopacity="1.0"
     bordercolor="#666666"
     pagecolor="#ffffff"
     id="base"
     showguides="true"
     inkscape:guide-bbox="true">
    <sodipodi:guide
       position="0,67.733334"
       orientation="0,256"
       id="guide853" />
    <sodipodi:guide
       position="67.733,67.733334"
       orientation="-1,0"
       id="guide855"
       inkscape:label=""
       inkscape:locked="false"
       inkscape:color="rgb(0,0,255)" />
    <sodipodi:guide
       position="67.733334,0"
       orientation="0,-256"
       id="guide857" />
    <sodipodi:guide
       position="0,0"
       orientation="-1,0"
       id="guide859"
       inkscape:label=""
       inkscape:locked="false"
       inkscape:color="rgb(0,0,255)" />
    <sodipodi:guide
       position="22.568958,45.164375"
       orientation="0,1"
       id="guide1430"
       inkscape:label=""
       inkscape:locked="false"
       inkscape:color="rgb(0,0,255)" />
    <sodipodi:guide
       position="45.137917,22.595417"
       orientation="0,1"
       id="guide1432"
       inkscape:label=""
       inkscape:locked="false"
       inkscape:color="rgb(0,0,255)" />
    <sodipodi:guide
       position="22.568958,45.164376"
       orientation="1,0"
       id="guide1434" />
    <sodipodi:guide
       position="45.137916,22.595418"
       orientation="1,0"
       id="guide1436" />
    <sodipodi:guide
       position="7.5141667,60.219167"
       orientation="0,1"
       id="guide1438"
       inkscape:label=""
       inkscape:locked="false"
       inkscape:color="rgb(0,0,255)" />
    <sodipodi:guide
       position="7.5141667,60.219167"
       orientation="1,0"
       id="guide1440" />
    <sodipodi:guide
       position="60.219167,7.5141667"
       orientation="0,1"
       id="guide1442"
       inkscape:label=""
       inkscape:locked="false"
       inkscape:color="rgb(0,0,255)" />
    <sodipodi:guide
       position="60.219167,7.5141667"
       orientation="1,0"
       id="guide1444" />
    <sodipodi:guide
       position="15.028333,52.705"
       orientation="0,1"
       id="guide1446"
       inkscape:label=""
       inkscape:locked="false"
       inkscape:color="rgb(0,0,255)" />
    <sodipodi:guide
       position="15.028333,52.705001"
       orientation="1,0"
       id="guide1448" />
    <sodipodi:guide
       position="52.705,15.028333"
       orientation="0,1"
       id="guide1450"
       inkscape:label=""
       inkscape:locked="false"
       inkscape:color="rgb(0,0,255)" />
    <sodipodi:guide
       position="52.704999,15.028333"
       orientation="1,0"
       id="guide1452" />
  </sodipodi:namedview>
  <metadata
     id="metadata4529">
    <rdf:RDF>
      <cc:Work
         rdf:about="">
        <dc:format>image/svg+xml</dc:format>
        <dc:type
           rdf:resource="http://purl.org/dc/dcmitype/StillImage" />
        <dc:title />
      </cc:Work>
    </rdf:RDF>
  </metadata>
  <g
     transform="translate(0,-229.26665)"
     id="layer1"
     inkscape:groupmode="layer"
     inkscape:label="Ebene 1">
    <g
       transform="rotate(45,33.866668,263.13332)"
       id="g857">
      <rect
         y="244.49928"
         x="15.232632"
         height="37.268066"
         width="37.268074"
         id="rect852"
         style="fill:#d9d9d9;fill-opacity:1;stroke:#1f1f1f;stroke-width:3.52778;stroke-linecap:round;stroke-linejoin:round;stroke-miterlimit:4;stroke-dasharray:none;paint-order:stroke fill markers" />
      <rect
         y="249.81261"
         x="20.545958"
         height="26.641418"
         width="26.641415"
         id="rect854"
         style="fill:#1f1f1f;fill-opacity:1;stroke:none;stroke-width:2.13928;stroke-linecap:round;stroke-linejoin:round;stroke-miterlimit:4;stroke-dasharray:none;paint-order:stroke fill markers" />
    </g>
    <g
       aria-label="~$"
       transform="matrix(0.90558397,0,0,0.90558397,10.47231,29.123454)"
       id="text1044"
       style="font-style:normal;font-weight:normal;font-size:10.5833px;line-height:1.25;font-family:sans-serif;letter-spacing:0px;word-spacing:0px;white-space:pre;shape-inside:url(#rect1046);fill:#000000;fill-opacity:1;stroke:none">
      <path
         d="m 18.457859,258.76927 q -1.785939,0 -2.392276,1.44419 l -0.220487,-0.0661 q -0.220486,-0.25356 -0.363802,-0.65043 0.297656,-0.904 0.959115,-1.47726 0.661459,-0.58429 1.234724,-0.73863 0.584289,-0.15434 1.12448,-0.15434 1.444186,0 2.171791,0.71658 0.650434,0.65044 1.234723,0.66146 1.785939,0 2.392277,-1.45521 l 0.23151,0.0772 q 0.220487,0.25356 0.363803,0.65044 -0.429948,1.31189 -1.411113,1.84106 -0.981164,0.52916 -1.907206,0.52916 -0.451997,0 -1.069359,-0.22048 -0.606338,-0.23151 -1.014237,-0.61736 -0.584289,-0.5402 -1.333943,-0.5402 z"
         style="font-style:normal;font-variant:normal;font-weight:bold;font-stretch:normal;font-size:22.5778px;font-family:'Linux Libertine';-inkscape-font-specification:'Linux Libertine, Bold';font-variant-ligatures:normal;font-variant-caps:normal;font-variant-numeric:normal;font-variant-east-asian:normal;opacity:0.99;fill:#d9d9d9;fill-opacity:1"
         id="path856" />
      <path
         d="m 31.268115,255.9691 0.220487,-4.05695 q -0.73863,0.0661 -1.212675,0.57326 -0.463022,0.4961 -0.463022,1.30087 0,0.56224 0.4079,1.12448 0.418924,0.56224 1.04731,1.05834 z m 0.694532,3.96875 -0.23151,4.17822 q 0.826823,-0.0992 1.344966,-0.56224 0.529167,-0.46302 0.529167,-1.14653 0,-0.70556 -0.451997,-1.30087 -0.440972,-0.60634 -1.190626,-1.16858 z m 3.285247,-8.32336 q 0.220486,2.02848 0.23151,3.18603 -0.385851,0.3197 -1.036286,0.11024 -0.09922,-0.35278 -0.187413,-0.60633 -0.07717,-0.25356 -0.209462,-0.58429 -0.132292,-0.33073 -0.286632,-0.57327 -0.154341,-0.24253 -0.352778,-0.48507 -0.187414,-0.24253 -0.451997,-0.4079 -0.25356,-0.16536 -0.551216,-0.25356 l -0.253559,4.55305 0.09922,0.0551 q 2.193839,1.14653 2.91042,1.96233 1.080383,1.20165 1.080383,2.39227 0,1.6757 -1.422137,2.93247 -1.223699,1.09141 -3.130906,1.12448 l -0.09922,1.90721 q -0.198437,0.11024 -0.926042,0.11024 l 0.110243,-2.02847 q -1.168578,-0.0331 -2.039499,-0.20946 -0.870921,-0.17639 -1.311893,-0.17639 -0.4079,-1.37804 -0.4079,-3.46164 0.727605,-0.17639 1.036286,-0.0661 0.418924,1.87414 1.907207,2.67891 0.429948,0.23151 0.859896,0.31971 l 0.264584,-4.74046 q -0.110243,-0.0661 -0.606338,-0.34175 -0.48507,-0.27561 -0.727605,-0.41893 -0.242534,-0.15434 -0.63941,-0.41892 -0.396875,-0.27561 -0.694532,-0.55122 -0.286632,-0.28663 -0.518143,-0.59531 -0.694532,-0.92604 -0.705556,-2.37023 0,-1.53238 1.355991,-2.61276 0.297657,-0.23151 0.672483,-0.41892 0.385851,-0.19844 0.782727,-0.30868 0.396875,-0.12127 0.782726,-0.18742 0.385851,-0.0661 0.749654,-0.0772 l 0.09922,-1.79696 q 0.297656,-0.11024 0.926042,-0.11024 l -0.09922,1.92925 q 0.584289,0.0331 1.058335,0.14332 0.474045,0.0992 0.903994,0.22048 0.440972,0.12127 0.826824,0.17639 z"
         style="font-style:normal;font-variant:normal;font-weight:bold;font-stretch:normal;font-size:22.5778px;font-family:'Linux Libertine';-inkscape-font-specification:'Linux Libertine, Bold';font-variant-ligatures:normal;font-variant-caps:normal;font-variant-numeric:normal;font-variant-east-asian:normal;opacity:0.99;fill:#d9d9d9;fill-opacity:1"
         id="path858" />
    </g>
  </g>
</svg>
