<?xml version="1.0" encoding="UTF-8" standalone="no"?>
<svg
   xmlns:dc="http://purl.org/dc/elements/1.1/"
   xmlns:cc="http://creativecommons.org/ns#"
   xmlns:rdf="http://www.w3.org/1999/02/22-rdf-syntax-ns#"
   xmlns:svg="http://www.w3.org/2000/svg"
   xmlns="http://www.w3.org/2000/svg"
   xmlns:sodipodi="http://sodipodi.sourceforge.net/DTD/sodipodi-0.dtd"
   xmlns:inkscape="http://www.inkscape.org/namespaces/inkscape"
   inkscape:version="1.0 (4035a4fb49, 2020-05-01)"
   sodipodi:docname="wifi0.svg"
   id="svg4532"
   version="1.1"
   viewBox="0 0 67.733332 67.733335"
   height="256"
   width="256">
  <defs
     id="defs4526" />
  <sodipodi:namedview
     inkscape:document-rotation="0"
     inkscape:window-maximized="1"
     inkscape:window-y="0"
     inkscape:window-x="0"
     inkscape:window-height="1034"
     inkscape:window-width="1920"
     units="px"
     showgrid="false"
     inkscape:current-layer="layer1"
     inkscape:document-units="mm"
     inkscape:cy="155.29948"
     inkscape:cx="94.679038"
     inkscape:zoom="3.497207"
     inkscape:pageshadow="2"
     inkscape:pageopacity="0.0"
     borderopacity="1.0"
     bordercolor="#666666"
     pagecolor="#ffffff"
     id="base"
     showguides="true"
     inkscape:guide-bbox="true">
    <sodipodi:guide
       position="33.866667,70.933197"
       orientation="-1,0"
       id="guide2301"
       inkscape:label=""
       inkscape:locked="false"
       inkscape:color="rgb(0,0,255)" />
  </sodipodi:namedview>
  <metadata
     id="metadata4529">
    <rdf:RDF>
      <cc:Work
         rdf:about="">
        <dc:format>image/svg+xml</dc:format>
        <dc:type
           rdf:resource="http://purl.org/dc/dcmitype/StillImage" />
        <dc:title></dc:title>
      </cc:Work>
    </rdf:RDF>
  </metadata>
  <g
     transform="translate(0,-229.26665)"
     id="layer1"
     inkscape:groupmode="layer"
     inkscape:label="Ebene 1">
    <path
       transform="matrix(0.26458333,0,0,0.26458333,0,229.26665)"
       d="M 127.16016 31.908203 A 176.8121 208.58189 0 0 0 124.99414 31.921875 A 176.8121 208.58189 0 0 0 25.533203 69.746094 L 50.943359 112.46875 L 82.638672 165.76172 C 111.73602 156.97779 141.20308 155.22492 171.375 166.87891 L 204.26758 112.21094 L 229.42383 70.396484 A 176.8121 208.58189 0 0 0 127.16016 31.908203 z M 171.375 166.87891 L 82.638672 165.76172 L 114.55664 219.42383 A 17.442615 13.164237 0 0 1 127.16992 215.32812 A 17.442615 13.164237 0 0 1 139.77539 219.40234 L 171.375 166.87891 z "
       style="opacity:1;fill:#d9d9d9;fill-opacity:1;fill-rule:evenodd;stroke:none;stroke-width:16.8718;stroke-linecap:butt;stroke-linejoin:round;stroke-miterlimit:4;stroke-dasharray:none;stroke-dashoffset:0;stroke-opacity:1;paint-order:stroke fill markers"
       id="path5164-6" />
    <path
       id="path5164-6-4"
       style="opacity:1;fill:#1f1f1f;fill-opacity:1;fill-rule:evenodd;stroke:#1f1f1f;stroke-width:3.51449;stroke-linecap:butt;stroke-linejoin:round;stroke-miterlimit:4;stroke-dasharray:none;stroke-dashoffset:0;stroke-opacity:1;paint-order:stroke fill markers"
       d="m 33.662374,242.98518 a 36.830831,43.448635 0 0 0 -0.451193,0.004 36.830831,43.448635 0 0 0 -20.718202,7.87897 l 5.293061,8.89935 6.602288,11.10118 c 6.061121,-1.82974 12.199256,-2.19486 18.484216,0.23272 l 6.851686,-11.38761 5.240171,-8.71015 a 36.830831,43.448635 0 0 0 -21.302027,-8.01761 z m 9.21017,28.11506 -18.484216,-0.23272 6.648671,11.17808 a 3.6333826,2.7421754 0 0 1 2.627408,-0.85316 3.6333826,2.7421754 0 0 1 2.625782,0.84868 z" />
  </g>
</svg>
