<?xml version="1.0" encoding="UTF-8" standalone="no"?>
<svg
   xmlns:dc="http://purl.org/dc/elements/1.1/"
   xmlns:cc="http://creativecommons.org/ns#"
   xmlns:rdf="http://www.w3.org/1999/02/22-rdf-syntax-ns#"
   xmlns:svg="http://www.w3.org/2000/svg"
   xmlns="http://www.w3.org/2000/svg"
   xmlns:sodipodi="http://sodipodi.sourceforge.net/DTD/sodipodi-0.dtd"
   xmlns:inkscape="http://www.inkscape.org/namespaces/inkscape"
   inkscape:version="1.0.1 (3bc2e813f5, 2020-09-07)"
   sodipodi:docname="x-office-calendar.svg"
   id="svg4532"
   version="1.1"
   viewBox="0 0 67.733332 67.733335"
   height="256"
   width="256">
  <defs
     id="defs4526">
    <rect
       id="rect880"
       height="26.348453"
       width="23.107814"
       y="251.83561"
       x="22.568958" />
    <inkscape:perspective
       id="perspective848"
       inkscape:persp3d-origin="33.866666 : 22.577778 : 1"
       inkscape:vp_z="67.733332 : 33.866667 : 1"
       inkscape:vp_y="0 : 1000 : 0"
       inkscape:vp_x="0 : 33.866667 : 1"
       sodipodi:type="inkscape:persp3d" />
  </defs>
  <sodipodi:namedview
     inkscape:document-rotation="0"
     inkscape:window-maximized="1"
     inkscape:window-y="0"
     inkscape:window-x="0"
     inkscape:window-height="1024"
     inkscape:window-width="1920"
     units="px"
     showgrid="false"
     inkscape:current-layer="layer1"
     inkscape:document-units="px"
     inkscape:cy="176.13025"
     inkscape:cx="-89.320216"
     inkscape:zoom="1.7217615"
     inkscape:pageshadow="2"
     inkscape:pageopacity="0.0"
     borderopacity="1.0"
     bordercolor="#666666"
     pagecolor="#ffffff"
     id="base"
     showguides="true"
     inkscape:guide-bbox="true">
    <sodipodi:guide
       position="0,67.733334"
       orientation="0,256"
       id="guide853" />
    <sodipodi:guide
       position="67.733,67.733334"
       orientation="-1,0"
       id="guide855"
       inkscape:label=""
       inkscape:locked="false"
       inkscape:color="rgb(0,0,255)" />
    <sodipodi:guide
       position="67.733334,0"
       orientation="0,-256"
       id="guide857" />
    <sodipodi:guide
       position="0,0"
       orientation="-1,0"
       id="guide859"
       inkscape:label=""
       inkscape:locked="false"
       inkscape:color="rgb(0,0,255)" />
    <sodipodi:guide
       position="22.568958,45.164375"
       orientation="0,1"
       id="guide1430"
       inkscape:label=""
       inkscape:locked="false"
       inkscape:color="rgb(0,0,255)" />
    <sodipodi:guide
       position="45.137917,22.595417"
       orientation="0,1"
       id="guide1432"
       inkscape:label=""
       inkscape:locked="false"
       inkscape:color="rgb(0,0,255)" />
    <sodipodi:guide
       position="22.568958,45.164376"
       orientation="1,0"
       id="guide1434" />
    <sodipodi:guide
       position="45.137916,22.595418"
       orientation="1,0"
       id="guide1436" />
    <sodipodi:guide
       position="7.5141667,60.219167"
       orientation="0,1"
       id="guide1438"
       inkscape:label=""
       inkscape:locked="false"
       inkscape:color="rgb(0,0,255)" />
    <sodipodi:guide
       position="7.5141667,60.219167"
       orientation="1,0"
       id="guide1440" />
    <sodipodi:guide
       position="60.219167,7.5141667"
       orientation="0,1"
       id="guide1442"
       inkscape:label=""
       inkscape:locked="false"
       inkscape:color="rgb(0,0,255)" />
    <sodipodi:guide
       position="60.219167,7.5141667"
       orientation="1,0"
       id="guide1444" />
    <sodipodi:guide
       position="15.028333,52.705"
       orientation="0,1"
       id="guide1446"
       inkscape:label=""
       inkscape:locked="false"
       inkscape:color="rgb(0,0,255)" />
    <sodipodi:guide
       position="15.028333,52.705001"
       orientation="1,0"
       id="guide1448" />
    <sodipodi:guide
       position="52.705,15.028333"
       orientation="0,1"
       id="guide1450"
       inkscape:label=""
       inkscape:locked="false"
       inkscape:color="rgb(0,0,255)" />
    <sodipodi:guide
       position="52.704999,15.028333"
       orientation="1,0"
       id="guide1452" />
  </sodipodi:namedview>
  <metadata
     id="metadata4529">
    <rdf:RDF>
      <cc:Work
         rdf:about="">
        <dc:format>image/svg+xml</dc:format>
        <dc:type
           rdf:resource="http://purl.org/dc/dcmitype/StillImage" />
        <dc:title />
      </cc:Work>
    </rdf:RDF>
  </metadata>
  <g
     transform="translate(0,-229.26665)"
     id="layer1"
     inkscape:groupmode="layer"
     inkscape:label="Ebene 1">
    <rect
       ry="4.0522094"
       rx="4.0522094"
       y="244.29498"
       x="7.5141668"
       height="45.190826"
       width="52.705002"
       id="rect872"
       style="fill:#d9d9d9;stroke:#1f1f1f;stroke-width:3.52778;stroke-linecap:round;stroke-linejoin:round;stroke-miterlimit:4;stroke-dasharray:none;paint-order:stroke fill markers" />
    <rect
       ry="2.0458841"
       rx="2.0458841"
       y="236.78082"
       x="15.028333"
       height="11.128615"
       width="37.676666"
       id="rect876"
       style="fill:#1f1f1f;fill-opacity:1;stroke:#d9d9d9;stroke-width:1.05833;stroke-linecap:round;stroke-linejoin:round;stroke-miterlimit:4;stroke-dasharray:none;stroke-opacity:1;paint-order:stroke fill markers" />
    <g
       aria-label="3"
       transform="matrix(1.845415,0,0,1.845415,-16.5596,-214.62832)"
       id="text878"
       style="font-style:normal;font-variant:normal;font-weight:bold;font-stretch:normal;font-size:19.7556px;line-height:1.25;font-family:'Linux Libertine G';-inkscape-font-specification:'Linux Libertine G, Bold';font-variant-ligatures:normal;font-variant-caps:normal;font-variant-numeric:normal;font-variant-east-asian:normal;letter-spacing:0px;word-spacing:0px;white-space:pre;shape-inside:url(#rect880);fill:#1f1f1f;fill-opacity:1;stroke:none">
      <path
         d="m 27.468674,258.57819 q -0.318327,0 -0.540192,0.0289 -0.212218,0.0289 -0.482314,0.14469 -0.26045,0.11576 -0.44373,0.38585 -0.173633,0.2701 -0.250803,0.70418 -0.09646,0.53055 -0.356913,0.81029 -0.26045,0.2701 -0.868166,0.2701 -0.75241,0 -0.75241,-0.72347 0,-0.67524 0.549838,-1.1865 0.41479,-0.3762 0.742764,-0.59807 0.327974,-0.23151 1.080385,-0.44373 0.75241,-0.22186 1.697746,-0.22186 1.813503,0 2.508036,0.66559 0.694532,0.65595 0.694532,1.52412 0,0.96463 -0.839227,1.91961 -0.41479,0.47267 -1.003214,0.7717 1.205786,0.0772 1.890673,0.87781 0.694533,0.80065 0.694533,1.90032 0,1.54341 -1.003214,2.74919 -0.713826,0.86817 -1.803856,1.35049 -1.080385,0.48231 -2.13183,0.48231 -1.504821,0 -2.720254,-0.60772 -0.655947,-0.33762 -0.655947,-0.92604 0,-0.29904 0.279742,-0.56913 0.279742,-0.27974 0.694533,-0.27974 0.75241,0 1.282956,0.72347 0.636655,0.82958 1.437297,0.82958 0.752411,0 1.408358,-0.62701 0.665594,-0.63666 0.665594,-2.13183 0,-2.66238 -2.46945,-2.67202 -0.395497,0 -0.945336,0.16398 -0.154341,-0.17363 -0.154341,-0.57877 0,-0.13505 0.01929,-0.21222 1.379419,-0.30868 2.199354,-1.15756 0.819935,-0.84887 0.819935,-1.96784 0,-1.39871 -1.244372,-1.39871 z"
         style="font-style:normal;font-variant:normal;font-weight:bold;font-stretch:normal;font-size:19.7556px;font-family:'Linux Libertine';-inkscape-font-specification:'Linux Libertine, Bold';font-variant-ligatures:normal;font-variant-caps:normal;font-variant-numeric:normal;font-variant-east-asian:normal"
         id="path857" />
    </g>
    <g
       aria-label="Mon"
       id="text922"
       style="font-style:normal;font-weight:normal;font-size:10.5833px;line-height:1.25;font-family:sans-serif;letter-spacing:0px;word-spacing:0px;fill:#1f1f1f;fill-opacity:1;stroke:none;stroke-width:0.705556;stroke-miterlimit:4;stroke-dasharray:none;stroke-opacity:1">
      <path
         d="m 29.901824,257.67883 -0.268716,-4.42349 h -0.02584 l -2.377109,5.60171 q -0.06201,0.13952 -0.201537,0.13435 -0.160197,0 -0.211873,-0.13435 l -2.082554,-5.21931 h -0.04134 l -0.279051,3.96874 q -0.04134,0.49609 0.08268,0.70796 0.12919,0.21188 0.614947,0.25322 0.04134,0.0413 0.04134,0.18087 0,0.13952 -0.04134,0.18086 -0.635618,-0.0207 -1.204057,-0.0207 -0.273884,0 -0.91467,0.0207 -0.04134,-0.0413 -0.04134,-0.1757 0,-0.13952 0.04134,-0.18603 0.434081,-0.0362 0.58911,-0.23771 0.155028,-0.20154 0.206705,-0.7028 l 0.423745,-4.36148 q 0.05168,-0.58394 -0.05684,-0.69763 -0.103352,-0.11368 -0.661456,-0.14469 -0.05168,-0.0517 -0.05684,-0.18087 0,-0.12919 0.05684,-0.18086 l 2.170403,0.0207 1.891352,4.69737 h 0.05168 l 2.015374,-4.69737 2.123895,-0.0207 q 0.05168,0.0517 0.05168,0.18086 0,0.12403 -0.05168,0.18087 -0.52193,0.031 -0.640786,0.17053 -0.118855,0.13436 -0.08785,0.57878 l 0.320392,4.45449 q 0.0155,0.24805 0.02584,0.37724 0.01033,0.12402 0.05168,0.24804 0.04134,0.12403 0.07751,0.16537 0.03617,0.0413 0.139526,0.0879 0.10852,0.0413 0.206705,0.0517 0.103353,0.005 0.310058,0.0103 0.05168,0.0413 0.05168,0.18087 0,0.13952 -0.05168,0.18086 -0.69763,-0.0207 -1.152381,-0.0207 -0.775144,0 -1.767328,0.0207 -0.05168,-0.0413 -0.05168,-0.1757 0,-0.13952 0.05168,-0.18603 0.211872,-0.0103 0.294554,-0.0103 0.08268,-0.005 0.191203,-0.0413 0.10852,-0.0413 0.12919,-0.0775 0.02584,-0.0413 0.05168,-0.15503 0.03101,-0.11369 0.02584,-0.23771 -0.0052,-0.12402 -0.02067,-0.3669 z"
         style="font-style:normal;font-variant:normal;font-weight:bold;font-stretch:normal;font-size:10.5833px;font-family:'Linux Libertine';-inkscape-font-specification:'Linux Libertine, Bold';font-variant-ligatures:normal;font-variant-caps:normal;font-variant-numeric:normal;font-variant-east-asian:normal;fill:#1f1f1f;fill-opacity:1;stroke:none;stroke-width:0.705556;stroke-miterlimit:4;stroke-dasharray:none;stroke-opacity:1"
         id="path860" />
      <path
         d="m 35.146965,254.65577 q -0.878496,0 -0.878496,1.82933 0,0.72864 0.310058,1.4056 0.315225,0.67696 0.899167,0.67696 0.351398,0 0.614947,-0.37207 0.263549,-0.37724 0.263549,-1.23506 0,-1.08004 -0.330728,-1.68982 -0.330728,-0.61494 -0.878497,-0.61494 z m -2.356437,2.06188 q 0,-1.05937 0.578774,-1.72599 0.682127,-0.78548 1.948195,-0.78031 1.152381,0 1.834508,0.67696 0.687294,0.67696 0.687294,1.73632 0,1.14205 -0.723468,1.788 -0.676959,0.60461 -1.808669,0.59944 -1.080034,0 -1.798334,-0.63045 -0.7183,-0.63561 -0.7183,-1.66397 z"
         style="font-style:normal;font-variant:normal;font-weight:bold;font-stretch:normal;font-size:10.5833px;font-family:'Linux Libertine';-inkscape-font-specification:'Linux Libertine, Bold';font-variant-ligatures:normal;font-variant-caps:normal;font-variant-numeric:normal;font-variant-east-asian:normal;fill:#1f1f1f;fill-opacity:1;stroke:none;stroke-width:0.705556;stroke-miterlimit:4;stroke-dasharray:none;stroke-opacity:1"
         id="path862" />
      <path
         d="m 40.640153,257.61682 q 0,0.62528 0.09302,0.77514 0.09819,0.14469 0.454752,0.1757 0.04134,0.0413 0.04134,0.18087 0.0052,0.13952 -0.04134,0.18086 -0.909503,-0.0207 -1.235063,-0.0207 -0.563271,0 -1.452103,0.0207 -0.04134,-0.0413 -0.04134,-0.1757 0,-0.13952 0.04134,-0.18603 0.506427,-0.0413 0.635618,-0.1757 0.12919,-0.13953 0.12919,-0.77514 v -1.97921 q 0,-0.44441 -0.124023,-0.56843 -0.118855,-0.1292 -0.563271,-0.17054 -0.06201,-0.20153 -0.02584,-0.34106 0.899167,-0.11886 1.756993,-0.34623 0.232543,0 0.248046,0.18087 0.04651,0.31522 0.06718,0.68212 1.260901,-0.86816 1.762161,-0.86299 1.405595,0 1.405595,1.68981 v 1.65364 q 0,0.64596 0.155028,0.82166 0.155029,0.17053 0.661457,0.1912 0.05168,0.0413 0.05168,0.18087 0,0.13952 -0.05168,0.18086 -0.909503,-0.0207 -1.50378,-0.0207 -0.403075,0 -1.291907,0.0207 -0.05168,-0.0413 -0.05168,-0.1757 0,-0.13952 0.05168,-0.18603 0.351399,-0.0207 0.475422,-0.20154 0.129191,-0.18603 0.129191,-0.81132 v -1.76732 q 0,-0.79582 -0.738971,-0.79582 -0.315225,0 -1.038693,0.49609 v 0.0207 z"
         style="font-style:normal;font-variant:normal;font-weight:bold;font-stretch:normal;font-size:10.5833px;font-family:'Linux Libertine';-inkscape-font-specification:'Linux Libertine, Bold';font-variant-ligatures:normal;font-variant-caps:normal;font-variant-numeric:normal;font-variant-east-asian:normal;fill:#1f1f1f;fill-opacity:1;stroke:none;stroke-width:0.705556;stroke-miterlimit:4;stroke-dasharray:none;stroke-opacity:1"
         id="path864" />
    </g>
  </g>
</svg>
